<?xml version="1.0" encoding="UTF-8" standalone="no"?>
<!-- Created with Inkscape (http://www.inkscape.org/) -->

<svg
   version="1.1"
   id="svg1"
   width="201.338"
   height="231.53101"
   viewBox="0 0 201.338 231.53101"
   sodipodi:docname="bee.svg"
   inkscape:version="1.4 (e7c3feb100, 2024-10-09)"
   xmlns:inkscape="http://www.inkscape.org/namespaces/inkscape"
   xmlns:sodipodi="http://sodipodi.sourceforge.net/DTD/sodipodi-0.dtd"
   xmlns="http://www.w3.org/2000/svg"
   xmlns:svg="http://www.w3.org/2000/svg">
  <defs
     id="defs1" />
  <sodipodi:namedview
     id="namedview1"
     pagecolor="#ffffff"
     bordercolor="#000000"
     borderopacity="0.25"
     inkscape:showpageshadow="2"
     inkscape:pageopacity="0.0"
     inkscape:pagecheckerboard="0"
     inkscape:deskcolor="#d1d1d1"
     showgrid="false"
     inkscape:zoom="5.0297564"
     inkscape:cx="112.82853"
     inkscape:cy="90.759863"
     inkscape:window-width="1696"
     inkscape:window-height="1384"
     inkscape:window-x="0"
     inkscape:window-y="0"
     inkscape:window-maximized="0"
     inkscape:current-layer="g1" />
  <g
     inkscape:groupmode="layer"
     inkscape:label="Image"
     id="g1">
    <g
       id="g7"
       inkscape:label="logo"
       transform="translate(-48.511295,-15.110075)">
      <path
         style="fill:#000000"
         d="m 141.88485,192.07327 c -7.87177,-7.91618 -14.54857,-29.19657 -12.85292,-40.96494 0.73473,-5.09929 0.68308,-5.2013 -1.03046,-2.03506 -0.99219,1.83333 -2.21526,7.5151 -2.71793,12.62614 -1.13527,11.54311 -4.26479,18.8083 -10.43562,24.22629 -5.66058,4.97 -17.87342,9.48488 -19.97418,7.38412 -2.06442,-2.06442 -0.19225,-5.56989 2.97472,-5.56989 3.73757,0 12.00895,-4.36966 15.52864,-8.20357 3.47318,-3.78325 5.42238,-10.67705 6.53988,-23.12976 0.80696,-8.99225 1.07324,-9.56169 7.2867,-15.58208 5.65873,-5.48289 9.30017,-10.25454 9.30017,-12.1867 0,-2.64104 -20.008,11.23846 -22.9023,15.88728 -6.72094,10.79515 -18.59865,16.13639 -29.69206,13.35212 -7.00207,-1.7574 -4.44453,-6.61865 2.96501,-5.63574 7.28073,0.96583 16.60686,-2.83759 20.02879,-8.16821 1.91871,-2.98893 1.89692,-3.00003 -5.90347,-3.00744 -24.37454,-0.0231 -46.59433,-21.57652 -33.49195,-32.48745 4.17495,-3.47667 37.55627,-2.41444 54.08045,1.72089 13.56575,3.39497 13.74887,3.38966 9.4583,-0.27395 -1.90148,-1.62363 -5.33183,-5.73159 -7.62299,-9.1288 -3.20779,-4.756329 -5.23163,-6.376709 -8.80071,-7.046279 -7.10711,-1.3333 -15.79507,-13.42639 -11.53663,-16.05825 0.687,-0.42459 3.14206,1.58355 5.45568,4.46255 2.8386,3.53226 5.66461,5.50805 8.69007,6.07563 2.77293,0.52021 5.65128,2.37206 7.54432,4.8538 7.39188,9.690639 10.31541,12.590019 10.35507,10.269539 0.0215,-1.25753 1.34722,-2.98651 2.94605,-3.842179 2.6664,-1.42701 2.72157,-1.69132 0.66667,-3.1939 -3.04791,-2.22869 -2.82357,-6.9573 0.42637,-8.98693 4.04836,-2.52824 3.36269,-4.11938 -5.50144,-12.76645 -7.62211,-7.43545 -9.05727,-10.92412 -4.49395,-10.92412 1.01598,0 5.74724,3.9 10.51391,8.66667 4.8751,4.87511 9.83052,8.66667 11.32698,8.66667 1.50517,0 6.38668,-3.76321 11.24213,-8.66667 8.8682,-8.9559 11.09863,-10.13667 12.45771,-6.59499 0.533,1.38899 -1.89737,4.64154 -7.37518,9.87015 -8.81403,8.41304 -9.61756,10.03532 -5.5035,11.11117 3.32578,0.86971 3.80289,8.59469 0.60658,9.82123 -1.73436,0.66554 -1.62896,1.09251 0.66667,2.70042 1.49971,1.050449 2.72675,2.825879 2.72675,3.945399 0,3.54445 3.1774,1.18919 8,-5.930029 3.50636,-5.17615 5.94631,-7.2882 9.81328,-8.49449 2.92312,-0.91186 6.66738,-3.51144 8.66666,-6.01713 3.72354,-4.66667 8.18673,-5.88584 8.18673,-2.23629 0,3.40852 -11.16717,13.8242 -14.82456,13.82695 -2.31144,0.002 -4.20612,1.63381 -6.96351,5.998369 -2.08344,3.2978 -5.68344,7.49007 -8,9.31617 -5.09292,4.01463 -5.50781,3.98773 9.18895,0.59577 7.78613,-1.79701 18.91745,-3.01486 32.03415,-3.50478 l 20.1017,-0.75081 2.8983,3.68459 c 5.05314,6.42402 3.92537,10.862 -4.95464,19.49756 -8.98547,8.7381 -16.81724,11.82741 -29.98395,11.82741 h -8.01955 l 4.53575,4.6797 c 5.32968,5.49884 11.47988,7.5216 19.51908,6.4197 6.38819,-0.8756 8.36491,2.10161 3.2226,4.85369 -8.45596,4.52549 -22.3196,-0.45837 -29.42099,-10.57659 -2.56666,-3.65705 -7.36666,-8.2418 -10.66666,-10.18834 -3.3,-1.94654 -7.90612,-4.682 -10.23581,-6.0788 l -4.23581,-2.53964 1.42258,3.76886 c 0.78243,2.07288 3.80554,5.48176 6.71803,7.5753 6.20773,4.4622 8.99767,10.28731 8.99767,18.7862 0,15.98919 6.31372,25.57238 19.34349,29.36023 7.56256,2.1985 8.57464,3.24122 5.56796,5.73654 -2.40629,1.99704 -9.37402,-0.0635 -17.37696,-5.1388 -7.89861,-5.00915 -11.0595,-11.56963 -12.96667,-26.91257 -0.75742,-6.09335 -2.1783,-11.89065 -3.15751,-12.8829 -1.48733,-1.50713 -1.66651,-0.79381 -1.08858,4.33356 1.50486,13.35112 -5.06904,33.08637 -13.48165,40.47274 -6.56507,5.76421 -10.55339,5.60534 -16.79241,-0.66888 z m 19.5821,-16.66667 c 4.15369,-5.36813 3.31393,-5.8311 -10.43524,-5.75316 -14.24622,0.0808 -14.19748,0.0612 -11.11892,4.45649 2.42632,3.46405 19.10092,4.46718 21.55416,1.29667 z m 1.0369,-16.83075 c 2.98643,-0.63355 4.09885,-1.69162 4.39011,-4.17558 l 0.39011,-3.327 H 151.2282 135.17234 l -9.1e-4,3.5781 c -7.3e-4,2.88014 0.71433,3.68646 3.66576,4.13356 5.65064,0.856 19.2108,0.73621 23.66666,-0.20908 z m 0.0362,-18.89455 c 4.25164,-6.87931 -17.01826,-10.59385 -22.09822,-3.8592 -1.31786,1.74714 -2.10764,3.64339 -1.75505,4.21389 0.9744,1.57661 22.8608,1.25117 23.85327,-0.35469 z m -47.42204,-11.47501 2.46964,-5.53364 -4.20858,-0.64589 c -5.14295,-0.78928 -12.29797,1.99647 -17.20859,6.70003 -6.06381,5.80812 -4.56581,6.79629 8.61026,5.67981 7.72927,-0.65494 7.91106,-0.76398 10.33727,-6.20031 z m 92.13395,2.31475 c -3.71804,-5.22151 -12.82415,-9.41282 -18.47265,-8.50249 -2.41515,0.38923 -4.21215,1.08577 -3.99335,1.54787 0.2188,0.4621 1.26536,3.09018 2.32569,5.84018 l 1.92786,5 h 10.48961 10.48961 z m -115.4602,-1.36792 c 1.4417,-2.15186 4.8917,-5.18853 7.66666,-6.74814 6.97672,-3.92114 6.40037,-4.45801 -3.95461,-3.68371 -9.16833,0.68557 -19,4.30959 -19,7.00354 0,1.51808 8.90541,7.26521 11.33334,7.314 0.73333,0.0147 2.5129,-1.73382 3.95461,-3.88569 z m 43.37872,-8.1736 c 0,-5.23638 -12.20076,-1.04771 -15.8474,5.44062 -3.96179,7.04905 -3.879,7.06233 6.51407,1.04519 5.13333,-2.97198 9.33333,-5.89059 9.33333,-6.48581 z m 87.05525,7.78868 c 2.95979,-2.08499 3.40487,-3.0039 2.17357,-4.48753 -3.43901,-4.14375 -26.56216,-8.09659 -26.56216,-4.54074 0,0.73334 0.84222,1.33334 1.8716,1.33334 1.02937,0 4.47937,2.63271 7.66666,5.85047 6.27211,6.33206 8.14898,6.56517 14.85033,1.84446 z m -37.7269,1.97173 c -0.0275,-5.51424 -11.95041,-14.16637 -16.03933,-11.63927 -2.37231,1.46616 -0.96251,3.12081 6.7164,7.88292 7.65293,4.746 9.33123,5.42221 9.32293,3.75635 z m -24.51775,-8 c 2.86928,-3.77979 2.35498,-15.83441 -0.8106,-19 -3.01906,-3.01905 -9.98111,-3.52936 -15.2706,-1.11931 -3.73705,1.70272 -5.01226,14.27474 -2.01582,19.87364 1.90893,3.56687 15.43647,3.75051 18.09702,0.24567 z m -17.33462,-1.10905 c -1.67807,-4.37299 -0.8774,-16.24618 1.14799,-17.0234 2.69598,-1.03454 2.89822,-0.15153 2.32063,10.13245 -0.48834,8.69498 -1.78661,11.27419 -3.46862,6.89095 z m 6.1346,-8.22428 c 0.30613,-8.12322 0.81718,-10.33333 2.38942,-10.33333 1.57223,0 2.08329,2.21011 2.38942,10.33333 0.36585,9.70805 0.22127,10.33333 -2.38942,10.33333 -2.61069,0 -2.75528,-0.62528 -2.38942,-10.33333 z m 6.38942,0.33333 c 0,-9.94226 0.67417,-11.45915 3.73333,-8.4 1.96269,1.96269 2.10622,12.29611 0.21976,15.82099 -2.65327,4.95767 -3.95309,2.51756 -3.95309,-7.42099 z m 76.72519,4.48228 c 1.56973,-4.94581 -1.57998,-6.48228 -13.28845,-6.48228 -14.5604,0 -17.53835,2.53481 -5.7927,4.93071 4.5871,0.93569 9.84373,2.84023 11.6814,4.23232 3.63105,2.75063 5.94156,1.91358 7.39975,-2.68075 z m -150.83255,0.84548 c 3.70696,-1.88067 8.85125,-3.32776 11.82992,-3.32776 4.53382,0 5.03859,-0.27958 3.61077,-2 -2.10263,-2.53352 -22.60596,-2.8607 -25.06666,-0.4 -2.6772,2.6772 -1.02669,9.08666 2.33333,9.06109 0.40333,-0.003 3.68502,-1.50307 7.29264,-3.33333 z m 42.10736,-0.57499 c 2.73292,-0.80465 1.5321,-1.3666 -6.66667,-3.11983 -16.38889,-3.5046 -17.91079,-3.63897 -15.65394,-1.38212 4.419,4.419 15.21003,6.59549 22.32061,4.50195 z m 73,-2.03778 c 8.94118,-4.16272 8.79959,-4.51974 -1.24756,-3.14571 -13.49771,1.84593 -19.88229,3.94225 -15.75244,5.17219 5.92813,1.7655 9.8625,1.2965 17,-2.02648 z M 154.62539,91.409641 c -0.10299,-3.10455 -0.69803,-3.66409 -3.89932,-3.66667 -2.45293,-0.002 -3.5682,0.58145 -3.18017,1.66363 0.32869,0.91667 0.11456,2.61019 -0.47583,3.76338 -0.87348,1.70615 -0.25846,2.0787 3.30171,2 3.89056,-0.086 4.36168,-0.50249 4.25361,-3.76034 z"
         id="path1"
         sodipodi:nodetypes="ssssssssssssssscsssssssssssssssssssssssssssscsssscssscsssssscssssssssssssssssscccsssssssscsssssssscccssssscsssssssssssssssssssssssssssssssssssssssssscsssssssssssssss"
         inkscape:label="Bee" />
      <path
         sodipodi:type="star"
         style="opacity:1;fill:none;fill-opacity:1;stroke:#000000;stroke-width:7.55906;stroke-linecap:butt;stroke-linejoin:round;stroke-miterlimit:4.4;stroke-dasharray:none;stroke-opacity:1"
         id="path7"
         inkscape:flatsided="true"
         sodipodi:sides="6"
         sodipodi:cx="78.165092"
         sodipodi:cy="271.60962"
         sodipodi:r1="138.17638"
         sodipodi:r2="119.66425"
         sodipodi:arg1="-0.52359878"
         sodipodi:arg2="0"
         inkscape:rounded="0"
         inkscape:randomized="0"
         d="m 197.82934,202.52143 0,138.17638 -119.664247,69.08819 -119.664252,-69.08819 -1e-6,-138.17638 119.664252,-69.08819 z"
         transform="matrix(0.81550532,0,0,0.81550532,86.681574,-90.151655)" />
    </g>
    <g
       id="g2"
       style="fill:#ffdc44;fill-opacity:1"
       inkscape:label="fill">
      <path
         style="fill:#ffdc44;fill-opacity:1;stroke:none;stroke-width:1.50287;stroke-linejoin:round;stroke-miterlimit:4.4"
         d="M 58.129241,199.94129 C 34.031304,186.02932 12.771493,173.75704 10.885219,172.66956 l -3.4295895,-1.97725 0.00984,-54.47985 0.00984,-54.479848 L 54.52382,34.594121 c 25.876682,-14.92617 47.20593,-27.1384915 47.39832,-27.1384915 0.19239,0 21.51101,12.2123215 47.3747,27.1384915 l 47.02491,27.138491 0.005,54.477678 c 0.005,51.67204 -0.013,54.48876 -0.34301,54.69284 -0.19136,0.11834 -21.23861,12.27173 -46.77165,27.00754 -25.53305,14.73581 -46.61376,26.91225 -46.84602,27.05873 -0.38962,0.24576 -3.813012,-1.69111 -44.236739,-25.02811 z m 45.703699,-18.30675 c 2.08476,-0.55499 4.96693,-2.4472 7.34799,-4.82413 6.0561,-6.0456 11.22296,-18.72028 12.4871,-30.63176 0.37099,-3.49568 0.36882,-6.16079 -0.008,-9.88974 -0.28741,-2.84367 -0.25757,-4.07575 0.0987,-4.07575 0.0893,0 0.43505,0.31051 0.76826,0.69001 1.18046,1.34447 2.22737,5.61612 3.4123,13.92303 2.40716,16.87524 5.76691,22.43702 17.09859,28.30522 4.62136,2.39321 7.72461,3.40198 10.47369,3.40466 1.68148,0.002 2.15524,-0.15095 3.13237,-1.00889 1.03077,-0.90502 1.39486,-1.67084 1.11528,-2.34583 -0.39176,-0.94578 -1.72492,-1.5851 -6.45162,-3.09388 -5.65073,-1.80374 -8.71705,-3.44177 -11.71657,-6.259 -5.40918,-5.08046 -7.81002,-11.84302 -8.17383,-23.02364 -0.16654,-5.11802 -0.68141,-7.79614 -2.10051,-10.9259 -1.34008,-2.95548 -3.31597,-5.25315 -7.09624,-8.25187 -2.37808,-1.88643 -4.40653,-3.96607 -5.56724,-5.70775 -0.63121,-0.94714 -2.34928,-4.99139 -2.12044,-4.99139 0.31181,0 15.09934,9.00265 16.41102,9.99103 2.38146,1.79448 5.76681,5.25114 8.10779,8.27857 3.52907,4.5639 6.49203,7.14056 10.74978,9.34828 4.20858,2.18223 7.60117,3.06586 11.72553,3.05404 3.12341,-0.009 4.96962,-0.40837 7.11773,-1.53987 3.23074,-1.70177 4.01898,-3.62095 1.92116,-4.67758 -0.93108,-0.46897 -1.12718,-0.49218 -3.47202,-0.41089 -1.36687,0.0474 -4.00616,0.0864 -5.8651,0.0868 -4.1174,8e-4 -5.66506,-0.33999 -8.94675,-1.97003 -2.7396,-1.36078 -4.82345,-3.02936 -7.99898,-6.40496 l -2.43211,-2.58534 6.80608,-0.10828 c 3.74334,-0.0596 7.52181,-0.20868 8.39661,-0.33138 9.39674,-1.31806 15.67454,-4.63219 23.36277,-12.33348 6.80418,-6.81575 8.36999,-10.82157 6.09676,-15.597318 -0.61561,-1.293301 -2.76794,-4.332383 -4.34358,-6.13311 l -0.66149,-0.755983 -10.83551,0.410002 c -24.40058,0.923285 -31.54142,1.658742 -44.43555,4.576552 -5.09506,1.152958 -8.22895,1.794059 -8.7699,1.794059 -0.56443,0 -0.23603,-0.425045 1.26456,-1.6367 3.70255,-2.989636 6.47389,-6.07603 9.60821,-10.700514 1.96721,-2.902486 3.66403,-4.781858 4.81735,-5.33562 0.4585,-0.220146 1.38209,-0.487364 2.05242,-0.593814 2.10807,-0.334768 4.25295,-1.641714 8.00324,-4.876634 2.19687,-1.894975 4.4905,-4.435873 5.7582,-6.378969 0.74972,-1.149157 0.92096,-1.587643 0.98937,-2.533498 0.10323,-1.427113 -0.25437,-2.06514 -1.26359,-2.254471 -1.6723,-0.313725 -4.17897,1.140142 -6.55452,3.801625 -3.2031,3.588639 -5.55326,5.22941 -9.57445,6.684449 -3.78683,1.370233 -5.72497,3.190457 -10.22646,9.604244 -1.92233,2.738966 -4.96852,5.979771 -5.81131,6.182574 -0.74002,0.178076 -0.90348,-0.02303 -1.12501,-1.384148 -0.26976,-1.657494 -0.92226,-2.601576 -2.88647,-4.176362 -1.6404,-1.315173 -1.76653,-1.495708 -1.35931,-1.945686 0.1801,-0.199 0.44091,-0.361819 0.5796,-0.361819 0.47046,0 1.53439,-1.076509 1.91556,-1.938211 0.86717,-1.960393 0.58483,-5.199314 -0.60229,-6.909136 -0.43182,-0.621943 -0.85142,-0.915679 -1.92526,-1.347749 -2.13579,-0.859358 -2.42751,-1.287935 -1.76213,-2.588756 0.61681,-1.205855 1.55316,-2.244265 6.93803,-7.694277 2.97116,-3.007104 5.78032,-5.954237 6.24258,-6.549186 1.04769,-1.348407 1.80282,-2.817389 1.80282,-3.507086 0,-0.72331 -0.74352,-1.984148 -1.32677,-2.249893 -0.69225,-0.31541 -1.03577,-0.274005 -2.15253,0.259442 -1.48522,0.709458 -3.1667,2.15394 -8.5857,7.375564 -6.53842,6.300286 -10.29756,9.243945 -11.80477,9.243945 -0.95794,0 -3.978166,-2.038174 -7.167849,-4.837165 -0.917259,-0.804907 -3.278161,-3.010181 -5.246447,-4.900607 -3.835653,-3.683928 -7.248266,-6.553496 -8.57202,-7.207969 -0.647285,-0.320024 -1.013617,-0.375197 -1.753979,-0.264174 -2.344668,0.351606 -2.274196,2.152468 0.214553,5.482651 0.529976,0.709162 3.070519,3.436604 5.645649,6.060986 4.957715,5.052535 6.092661,6.355574 6.867472,7.884588 0.847878,1.673205 0.558868,2.428689 -1.502717,3.928159 -0.76863,0.559055 -1.657044,1.37474 -1.974257,1.812638 -1.104443,1.524641 -1.298233,4.029589 -0.441641,5.708652 0.223183,0.437475 1.013667,1.340153 1.756632,2.005952 1.591033,1.425789 1.577973,1.535486 -0.31327,2.631054 -2.04502,1.184648 -3.405716,2.79471 -3.405716,4.02986 0,0.264338 -0.121161,0.581173 -0.269247,0.704073 -0.590252,0.489865 -2.736821,-1.698589 -7.191842,-7.332172 -1.080913,-1.366865 -2.416552,-3.053261 -2.968086,-3.747545 -1.783917,-2.245638 -4.315867,-3.849648 -7.265519,-4.60276 -3.037922,-0.77565 -5.32559,-2.237033 -7.696748,-4.916749 -4.713708,-5.327105 -6.126744,-6.344685 -7.204291,-5.188074 -1.686915,1.81069 0.167849,6.565582 4.228604,10.840505 2.504205,2.636275 5.133,4.277905 7.889,4.926521 3.591039,0.84514 5.324371,2.257071 8.822587,7.186664 2.828325,3.985601 4.976561,6.520707 7.656506,9.035344 1.215225,1.140266 2.209544,2.185046 2.209594,2.321733 1.81e-4,0.493004 -1.131516,0.286294 -9.543115,-1.743091 C 69.644375,94.274494 64.650399,93.357945 59.645036,92.763041 43.643044,90.86115 26.452437,90.808122 20.539288,92.642411 c -1.101796,0.341782 -1.530546,0.612734 -2.493752,1.575939 -4.800449,4.80045 -3.813264,11.81788 2.624558,18.65675 5.02455,5.33755 12.583445,9.61174 20.655309,11.67957 4.023449,1.03072 6.433568,1.32652 12.056904,1.47979 4.967682,0.1354 5.964504,0.27631 5.964504,0.84315 0,0.61646 -1.454331,2.64598 -2.968574,4.14265 -2.632364,2.60182 -6.018532,4.38251 -10.496504,5.51984 -2.059491,0.52307 -2.314434,0.54222 -6.615418,0.49676 -5.101348,-0.0539 -6.095864,0.11278 -7.309728,1.2252 -0.575505,0.52742 -0.72247,0.80836 -0.72247,1.38108 0,1.00982 0.595979,1.70984 2.084012,2.44783 1.741593,0.86373 3.741211,1.25818 7.064199,1.39348 5.754946,0.23432 10.955965,-1.31112 16.081639,-4.77855 2.361299,-1.59738 6.005426,-5.25651 7.654126,-7.68564 2.306655,-3.39853 6.47804,-7.16898 12.988085,-11.73972 4.850181,-3.40534 9.470959,-6.03867 10.373208,-5.91157 1.040458,0.14656 -0.479654,2.9776 -3.552942,6.61696 -0.554044,0.6561 -2.894174,3.11645 -5.200285,5.46746 -3.986684,4.0643 -4.972452,5.21794 -5.743537,6.72166 -0.654391,1.27614 -1.123042,3.76147 -1.618579,8.58358 -1.14241,11.11687 -2.27113,16.24666 -4.52853,20.58119 -2.527174,4.85254 -11.298004,10.47413 -17.492559,11.2117 -1.853588,0.2207 -2.910391,0.82315 -3.511758,2.00192 -0.708196,1.38818 -0.422011,3.13176 0.635625,3.87256 0.628657,0.44032 3.053796,0.39918 5.078226,-0.0862 3.606737,-0.86468 8.544517,-3.07594 12.226721,-5.47544 3.605885,-2.34977 6.978136,-6.18324 9.001168,-10.23227 2.115707,-4.2345 3.074274,-7.96248 4.074696,-15.84695 0.949917,-7.48643 1.833827,-11.18124 3.272028,-13.67734 l 0.687325,-1.1929 -2.86e-4,0.69586 c -1.57e-4,0.38272 -0.129909,1.59053 -0.28834,2.68402 -0.374295,2.5834 -0.373406,7.13876 0.002,10.17094 1.216962,9.82987 5.062317,20.7718 9.805855,27.90248 1.338977,2.01281 4.790122,5.55816 6.596985,6.77707 2.371616,1.59989 4.649721,2.09088 6.909761,1.48923 z"
         id="path18" />
      <path
         style="fill:#ffdc44;fill-opacity:1;stroke:none;stroke-width:1.50287;stroke-linejoin:round;stroke-miterlimit:4.4"
         d="m 24.23664,106.97785 c -0.704774,-0.30061 -1.863225,-1.83367 -2.172456,-2.87496 -0.487334,-1.64103 -0.38863,-3.47338 0.253292,-4.702158 0.64122,-1.227435 1.329122,-1.65402 3.350188,-2.077533 5.0396,-1.056044 16.085209,-0.786925 20.386892,0.496713 0.985943,0.29421 1.47737,0.572474 1.938464,1.09763 0.339726,0.386927 0.617684,0.78671 0.617684,0.888407 0,0.414911 -0.900189,0.593991 -3.902499,0.776371 -5.063724,0.3076 -7.609568,1.08903 -14.923744,4.58079 -3.840573,1.83347 -4.78195,2.14141 -5.547821,1.81474 z"
         id="path19" />
      <path
         style="fill:#ffdc44;fill-opacity:1;stroke:none;stroke-width:1.50287;stroke-linejoin:round;stroke-miterlimit:4.4"
         d="m 38.110011,117.50375 c -3.600236,-1.29533 -9.977436,-5.75955 -9.977436,-6.98449 0,-0.72558 1.60941,-2.07153 3.628325,-3.03437 4.916307,-2.34462 11.424009,-3.69156 19.36453,-4.008 5.365843,-0.21383 5.490928,0.26759 0.803156,3.09114 -4.263113,2.56777 -6.810544,4.81927 -9.623565,8.50561 -1.056974,1.38512 -2.617579,2.84167 -3.018832,2.81754 -0.0656,-0.004 -0.594885,-0.17829 -1.176178,-0.38743 z"
         id="path20" />
      <path
         style="fill:#ffdc44;fill-opacity:1;stroke:none;stroke-width:1.50287;stroke-linejoin:round;stroke-miterlimit:4.4"
         d="m 46.866665,119.48803 c -2.652725,-0.28986 -3.058557,-1.09209 -1.572588,-3.10863 1.955522,-2.65376 5.741252,-5.63097 9.300978,-7.31456 4.138054,-1.95712 7.455459,-2.4619 11.858215,-1.80433 1.285535,0.19199 2.361337,0.36935 2.390671,0.39413 0.06362,0.0537 -2.653232,6.12111 -3.404054,7.60205 -0.718947,1.41808 -1.658794,2.43852 -2.649597,2.8768 -1.880172,0.8317 -12.466808,1.73225 -15.923625,1.35454 z"
         id="path21" />
      <path
         style="fill:#ffdc44;fill-opacity:1;stroke:none;stroke-width:1.50287;stroke-linejoin:round;stroke-miterlimit:4.4"
         d="m 66.404806,103.9596 c -5.763448,-0.38035 -11.498999,-2.53884 -14.023419,-5.277511 -0.743069,-0.806134 -0.80389,-0.939181 -0.505638,-1.106091 0.619008,-0.346414 4.212543,0.267746 14.875994,2.542412 5.687535,1.21323 8.455655,1.9539 8.885544,2.37752 0.247611,0.24399 0.193193,0.32021 -0.407942,0.57138 -1.744126,0.72874 -5.518973,1.11044 -8.824539,0.89229 z"
         id="path22" />
      <path
         style="fill:#ffdc44;fill-opacity:1;stroke:none;stroke-width:1.50287;stroke-linejoin:round;stroke-miterlimit:4.4"
         d="m 68.5751,116.43542 c -0.143115,-0.37295 0.373916,-1.54866 1.826653,-4.15375 1.388774,-2.49039 3.38127,-4.56195 5.847886,-6.07991 2.874337,-1.76889 6.432496,-2.87326 8.191938,-2.54259 0.916994,0.17233 1.855963,0.93826 2.039258,1.66344 0.119749,0.47376 0.02246,0.65084 -0.723862,1.31746 -1.785699,1.595 -8.894465,6.00842 -13.958012,8.66573 -2.643222,1.38714 -3.067936,1.53596 -3.223861,1.12962 z"
         id="path23" />
      <path
         style="fill:#ffdc44;fill-opacity:1;stroke:none;stroke-width:1.50287;stroke-linejoin:round;stroke-miterlimit:4.4"
         d="m 93.788611,125.61842 c -2.424193,-0.21069 -3.492598,-0.51791 -3.591747,-1.0328 -0.119406,-0.62008 1.352011,-3.32006 2.357091,-4.32514 1.113218,-1.11322 2.394468,-1.7977 4.506547,-2.40754 1.345701,-0.38855 2.01632,-0.44852 5.031918,-0.44996 3.73418,-0.002 5.34177,0.24533 7.94751,1.22169 3.60413,1.35047 5.20683,3.58013 3.99819,5.56226 -0.34676,0.56867 -0.53088,0.64977 -2.13654,0.94119 -3.66461,0.66509 -13.148262,0.9218 -18.112969,0.4903 z"
         id="path24" />
      <path
         style="fill:#ffdc44;fill-opacity:1;stroke:none;stroke-width:1.50287;stroke-linejoin:round;stroke-miterlimit:4.4"
         d="m 93.694071,143.91807 c -2.828718,-0.20301 -5.047794,-0.64203 -5.717643,-1.13116 -0.972294,-0.70998 -1.192255,-1.49594 -1.192592,-4.26131 l -3.09e-4,-2.53492 h 15.905343 c 15.10489,0 15.90534,0.0178 15.90534,0.35315 0,0.98821 -0.45233,3.75184 -0.72603,4.43589 -0.80628,2.01509 -3.02394,2.7679 -9.31421,3.16183 -3.69134,0.23117 -11.483328,0.21886 -14.859899,-0.0235 z"
         id="path25" />
      <path
         style="fill:#ffdc44;fill-opacity:1;stroke:none;stroke-width:1.50287;stroke-linejoin:round;stroke-miterlimit:4.4"
         d="m 99.279844,161.74213 c -4.154704,-0.60417 -6.601942,-1.51356 -7.78148,-2.89159 -0.864632,-1.01012 -1.751274,-2.69814 -1.610251,-3.06564 0.333568,-0.86926 2.948109,-1.10185 12.408337,-1.10381 13.44428,-0.003 14.31003,0.35276 11.2518,4.62085 -0.99479,1.38834 -2.17737,2.04064 -4.42612,2.44143 -1.93769,0.34535 -7.46366,0.34465 -9.842286,-0.001 z"
         id="path26" />
      <path
         style="fill:#ffdc44;fill-opacity:1;stroke:none;stroke-width:1.50287;stroke-linejoin:round;stroke-miterlimit:4.4"
         d="m 133.60488,115.74672 c -3.29108,-1.57257 -11.6983,-6.94981 -13.36174,-8.54613 -1.3305,-1.27682 -1.49183,-1.8531 -0.73882,-2.63907 1.10016,-1.14831 2.73921,-1.19738 5.45203,-0.16323 2.38405,0.90883 4.99239,2.72352 7.35962,5.12028 2.39627,2.42616 3.38236,4.06424 3.44122,5.71647 0.0321,0.90206 -0.002,0.97734 -0.46237,1.02753 -0.27337,0.0298 -1.03384,-0.20235 -1.68994,-0.51585 z"
         id="path27" />
      <path
         style="fill:#ffdc44;fill-opacity:1;stroke:none;stroke-width:1.50287;stroke-linejoin:round;stroke-miterlimit:4.4"
         d="m 140.44717,118.74333 c -0.11323,-0.30072 -1.05783,-2.72198 -2.09912,-5.38059 -1.04129,-2.65862 -1.8454,-4.95853 -1.78693,-5.11091 0.0585,-0.15239 0.75926,-0.48225 1.55729,-0.73303 2.09019,-0.65683 5.93132,-0.64741 8.21074,0.0201 5.40998,1.58435 9.95141,4.67056 12.86677,8.74385 0.6751,0.94324 1.44428,2.00575 1.70928,2.36114 l 0.48182,0.64615 h -10.36699 -10.367 z"
         id="path28" />
      <path
         style="fill:#ffdc44;fill-opacity:1;stroke:none;stroke-width:1.50287;stroke-linejoin:round;stroke-miterlimit:4.4"
         d="m 165.91261,116.71453 c -1.81318,-0.37524 -2.90656,-1.15637 -6.85918,-4.9003 -4.35098,-4.12125 -6.19242,-5.50617 -7.93102,-5.9648 -1.22726,-0.32375 -1.90026,-0.92593 -1.59109,-1.42368 0.42739,-0.68807 1.3083,-0.92793 3.69503,-1.00609 6.45225,-0.2113 17.92067,2.47095 21.68358,5.07138 0.79378,0.54856 1.53997,1.58199 1.53997,2.13278 0,0.82879 -3.74947,3.86049 -6.50519,5.25988 -0.74401,0.37782 -2.94551,1.05807 -3.2289,0.99771 -0.059,-0.0126 -0.42048,-0.0877 -0.8032,-0.16688 z"
         id="path29" />
      <path
         style="fill:#ffdc44;fill-opacity:1;stroke:none;stroke-width:1.50287;stroke-linejoin:round;stroke-miterlimit:4.4"
         d="m 178.90829,107.15707 c -0.62826,-0.13513 -1.37527,-0.52648 -3.53917,-1.85412 -2.17246,-1.3329 -6.67086,-2.88381 -11.34527,-3.9115 -2.53626,-0.55761 -5.37889,-1.464058 -6.22658,-1.985513 -2.79146,-1.717158 4.94544,-2.953144 15.9686,-2.55102 7.11757,0.259648 9.84878,1.432154 9.83724,4.223113 -0.005,1.16436 -0.73227,3.38897 -1.47542,4.51195 -0.82108,1.24072 -2.02105,1.82483 -3.2194,1.56709 z"
         id="path30" />
      <path
         style="fill:#ffdc44;fill-opacity:1;stroke:none;stroke-width:1.50287;stroke-linejoin:round;stroke-miterlimit:4.4"
         d="m 135.13401,104.15196 c -1.76611,-0.16051 -4.8519,-0.90137 -5.34492,-1.28325 -0.34046,-0.26371 -0.33058,-0.30404 0.18776,-0.76663 1.19808,-1.06922 6.67056,-2.369184 15.12251,-3.592279 5.19755,-0.752146 8.88424,-1.06925 8.88424,-0.764163 0,0.288932 -1.80618,1.314434 -4.97042,2.822072 -6.35954,3.03008 -9.90429,3.9455 -13.87917,3.58425 z"
         id="path31" />
      <path
         style="fill:#ffdc44;fill-opacity:1;stroke:none;stroke-width:1.50287;stroke-linejoin:round;stroke-miterlimit:4.4"
         d="m 100.99893,110.02318 c -3.171663,-0.29346 -5.46064,-0.91471 -6.615347,-1.79545 -2.875822,-2.19349 -3.436731,-12.706615 -0.963159,-18.052505 0.841856,-1.819421 1.674245,-2.54106 3.64729,-3.162017 4.973306,-1.565199 10.325486,-1.007346 13.151746,1.370795 2.90572,2.445 3.99727,12.077507 1.98612,17.526767 -0.79645,2.15797 -2.48592,3.26203 -5.8386,3.81547 -1.45559,0.24028 -4.28746,0.39693 -5.36805,0.29694 z m -4.532121,-2.26448 c 0.774358,-1.58065 1.450826,-8.303038 1.450149,-14.410826 -2.5e-4,-2.254867 -0.06666,-2.919656 -0.347929,-3.482687 -0.316553,-0.633669 -0.421649,-0.694435 -1.175943,-0.679929 -1.236412,0.02378 -1.753919,0.468543 -2.227982,1.914813 -0.598191,1.824962 -0.823692,3.455044 -0.956822,6.916604 -0.132804,3.453085 0.113441,6.199325 0.736849,8.217685 0.441012,1.42783 1.253924,2.57174 1.761212,2.47833 0.177191,-0.0326 0.5194,-0.46192 0.760466,-0.95399 z m 8.125701,0.33956 c 0.65105,-0.75689 0.75991,-2.11156 0.61047,-7.59637 -0.26729,-9.809899 -0.83559,-12.624871 -2.54877,-12.624871 -1.80587,0 -2.3994,3.25588 -2.43131,13.337251 -0.0209,6.59474 0.0274,6.92987 1.05465,7.32808 0.28415,0.11015 1.04458,0.1735 1.68983,0.14079 0.98131,-0.0497 1.24711,-0.14541 1.62513,-0.58488 z m 4.96961,-0.19045 c 0.7761,-0.9177 1.63297,-2.83684 1.98289,-4.44108 0.69173,-3.17136 0.57621,-8.909772 -0.23438,-11.642872 -0.35809,-1.207403 -1.7979,-2.829293 -2.71627,-3.05979 -1.54093,-0.386749 -1.93931,1.498065 -1.94875,9.220059 -0.007,5.688633 0.21804,8.372253 0.81509,9.721993 0.3199,0.72317 0.4618,0.84785 0.965,0.84785 0.42096,0 0.7465,-0.18511 1.13642,-0.64616 z"
         id="path32" />
      <path
         style="fill:#ffdc44;fill-opacity:1;stroke:none;stroke-width:1.50287;stroke-linejoin:round;stroke-miterlimit:4.4"
         d="m 98.762238,79.681693 c -0.558687,-0.269444 -0.557665,-0.302477 0.06514,-2.106902 0.396944,-1.150049 0.497791,-1.780913 0.447338,-2.798382 l -0.06514,-1.313607 0.695859,-0.34762 c 0.968025,-0.483581 3.803675,-0.483581 4.771375,0 1.0037,0.50157 1.26949,1.21421 1.28193,3.437089 0.013,2.318523 -0.23148,2.812978 -1.55553,3.146376 -1.125,0.283279 -5.04286,0.271504 -5.640972,-0.01695 z"
         id="path33" />
    </g>
  </g>
</svg>
