<?xml version="1.0" encoding="UTF-8" standalone="no"?>
<svg width="44" height="48" viewBox="0 0 44 48" fill="none" xmlns="http://www.w3.org/2000/svg" focusable="false" role="graphics-symbol" aria-label="Bee Network logo"><path d="M21.6 47.995C20.54 47.995 19.49 47.715 18.58 47.185L3.02 38.205C1.16 37.125 0 35.125 0 32.965V15.005C0 12.855 1.16 10.845 3.02 9.765L18.58 0.795C20.42 -0.265 22.79 -0.265 24.63 0.795L40.19 9.775C42.05 10.855 43.21 12.855 43.21 15.015V32.975C43.21 35.125 42.05 37.135 40.19 38.215L24.63 47.195C23.71 47.725 22.67 48.005 21.61 48.005L21.6 47.995ZM21.6 1.395C20.79 1.395 19.99 1.605 19.29 2.015L3.73 10.995C2.3 11.815 1.42 13.355 1.42 15.005V32.965C1.42 34.615 2.31 36.145 3.73 36.975L19.29 45.955C20.7 46.765 22.51 46.765 23.92 45.955L39.48 36.975C40.91 36.155 41.79 34.615 41.79 32.965V15.005C41.79 13.355 40.9 11.825 39.48 10.995L23.91 2.015C23.21 1.605 22.41 1.395 21.6 1.395Z" fill="currentColor"></path><path d="M34.6652 23.9224L36.7852 18.8324C37.9552 18.8024 38.7952 18.9124 38.7952 20.0524C38.7952 20.5024 38.5852 20.9824 38.1852 21.4324C36.8852 22.8324 35.3552 23.7124 34.6652 23.9224ZM24.2752 11.7124C24.3852 11.7124 24.4352 11.6624 24.4352 11.5824C24.4352 11.5824 24.4518 11.5724 24.4852 11.5524H26.4952C26.6252 11.5524 26.7052 11.4724 26.7052 11.3424V11.0824C26.7052 10.9524 26.6252 10.8724 26.4952 10.8724H24.4852C24.4518 10.8724 24.4352 10.8624 24.4352 10.8424C24.4352 10.7624 24.3852 10.7124 24.2752 10.7124C24.1952 10.7124 24.1452 10.7624 24.1452 10.8424V11.5824C24.1452 11.6624 24.1952 11.7124 24.2752 11.7124ZM33.2052 24.0824L35.4052 18.8624L36.1252 18.8324L33.9552 24.0224L33.2152 24.0724L33.2052 24.0824ZM31.8252 24.1124L33.9952 18.8924C34.2352 18.8924 34.4752 18.8924 34.7352 18.8624L32.5352 24.1024H31.8152L31.8252 24.1124ZM31.1652 24.1124L30.4452 24.0824L32.6152 18.9424C32.8552 18.9124 33.0952 18.9124 33.3352 18.9124L31.1652 24.1024V24.1124ZM29.8152 24.0324C29.5752 24.0024 29.3352 23.9524 29.1552 23.9224L31.2252 18.9724C31.4652 18.9724 31.7052 18.9724 31.9652 18.9424L29.8152 24.0324ZM18.9252 11.7124C19.0052 11.7124 19.0552 11.6624 19.0552 11.5824V10.8324C19.0552 10.7524 19.0052 10.7024 18.9252 10.7024C18.8152 10.7024 18.7652 10.7524 18.7652 10.8324C18.7652 10.8324 18.7485 10.8424 18.7152 10.8624H16.7052C16.5752 10.8624 16.4952 10.9424 16.4952 11.0724V11.3324C16.4952 11.4624 16.5752 11.5424 16.7052 11.5424H18.7152C18.7485 11.5424 18.7652 11.5524 18.7652 11.5724C18.7652 11.6524 18.8152 11.7024 18.9252 11.7024V11.7124ZM21.6052 16.6124C20.9452 16.5824 20.4152 16.3224 20.1252 15.8924C20.3652 15.7324 20.5252 15.4424 20.5252 15.1024C20.5252 14.7824 20.3952 14.5224 20.1852 14.3324C20.5552 13.9124 21.1152 13.7524 21.6152 13.7524C22.2552 13.7524 22.7552 13.9924 23.0452 14.3324C22.8352 14.5224 22.7052 14.7824 22.7052 15.1024C22.7052 15.4424 22.8652 15.7424 23.1052 15.8924C22.7852 16.3724 22.1752 16.6124 21.6252 16.6124H21.6052ZM28.5752 23.7124L27.3852 23.0524C26.4352 22.5224 25.3452 21.6524 24.7352 21.2524L24.5752 21.1424C24.6052 21.0624 24.6252 20.9824 24.6252 20.9024C26.6652 20.1124 28.1752 19.5824 30.5352 19.0524L28.5752 23.7124ZM20.9452 22.0924C19.9352 22.0924 19.1152 21.2724 19.1152 20.2624V18.6424C19.1152 17.8224 19.6752 17.1324 20.3852 16.9224C20.7252 17.1124 21.1552 17.2124 21.6052 17.2124C22.0552 17.2124 22.4752 17.1024 22.8252 16.9224C23.5452 17.1324 24.0952 17.8224 24.0952 18.6424V20.2624C24.0952 21.2724 23.2752 22.0924 22.2652 22.0924H20.9452ZM18.5652 23.9724C18.9652 23.3624 19.4152 22.8624 19.9652 22.5124C20.2552 22.6424 20.5752 22.7024 20.9452 22.7024H22.2652C22.6352 22.7024 22.9552 22.6524 23.2452 22.5124C23.8052 22.8524 24.2552 23.3624 24.6452 23.9724H18.5552H18.5652ZM17.4552 26.7824C17.5852 26.2224 17.7452 25.6924 17.9552 25.1624H25.2652C25.4752 25.6924 25.6352 26.2224 25.7652 26.7824H17.4452H17.4552ZM14.6452 23.7124L12.6852 19.0524C15.0452 19.5824 16.5552 20.1124 18.5952 20.9024C18.5952 20.9824 18.6252 21.0624 18.6452 21.1424L18.4852 21.2524C17.8752 21.6524 16.7852 22.5224 15.8352 23.0524L14.6452 23.7124ZM13.4052 24.0324L11.2552 18.9424C11.5152 18.9724 11.7552 18.9724 11.9952 18.9724L14.0652 23.9224L13.4052 24.0324ZM17.3752 31.6824C17.2652 31.1224 17.1852 30.5724 17.1652 30.0424H26.0652C26.0352 30.5724 25.9552 31.1324 25.8552 31.6824H17.3752ZM12.0552 24.1024L9.88516 18.9124C10.1252 18.9124 10.3652 18.9124 10.6052 18.9424L12.7752 24.0824L12.0552 24.1124V24.1024ZM10.6752 24.1024L8.47516 18.8624C8.73516 18.8924 8.97516 18.8924 9.21516 18.8924L11.3852 24.1124H10.6652L10.6752 24.1024ZM18.6252 34.8024C18.3052 34.3224 18.0452 33.7724 17.8052 33.1824H25.4352C25.1952 33.7624 24.9352 34.3224 24.6152 34.8024H18.6252ZM10.0052 24.0824L9.26516 24.0324L7.09516 18.8424C7.33516 18.8424 7.57516 18.8724 7.81516 18.8724L10.0152 24.0924L10.0052 24.0824ZM21.6052 36.6624C20.6252 36.6624 19.8352 36.2624 19.0652 35.4224H24.1552C23.4152 36.2424 22.6152 36.6424 21.6152 36.6624H21.6052ZM8.54516 23.9224C7.85516 23.7124 6.32516 22.8324 5.02516 21.4324C4.62516 20.9824 4.41516 20.5024 4.41516 20.0524C4.41516 18.9124 5.26516 18.8124 6.42516 18.8324L8.54516 23.9224ZM21.6052 37.3024C24.4952 37.3024 26.7452 33.8024 26.7452 29.3524C26.7452 28.0524 26.5052 26.6024 25.9752 25.2424L28.1752 27.0124C28.2552 27.0624 28.3052 27.1724 28.3352 27.2724L28.9152 32.9924C28.9452 33.3324 29.1252 33.4924 29.3952 33.6024L33.3452 35.0024C33.5552 35.0524 33.7452 35.0324 33.8252 34.8724C33.8752 34.7124 33.7452 34.5024 33.5852 34.4524L29.7452 33.0724C29.6152 33.0224 29.5552 32.9424 29.5352 32.8324L28.9552 27.1924C28.9252 26.8724 28.7952 26.7424 28.5852 26.5324L25.3852 23.9324C24.9652 23.2424 24.4552 22.6324 23.8452 22.1824C24.0352 22.0224 24.1852 21.8424 24.3252 21.6524L24.7752 21.9724C25.8052 22.7124 27.7952 24.1424 28.6652 24.4324L29.0352 24.5124L29.2952 24.5624L32.0252 28.4824C32.2152 28.7424 32.4452 28.8224 32.7452 28.7724L34.8352 28.4024C34.9652 28.3724 35.0752 28.2424 35.0752 28.1124C35.0752 27.9224 34.9452 27.7924 34.7352 27.8224L32.7752 28.1624C32.6452 28.1924 32.5352 28.1124 32.4852 28.0324L30.1052 24.6724C30.6352 24.7024 31.2452 24.7024 31.8252 24.7024C33.0652 24.7024 34.2352 24.6224 34.5552 24.5724C35.3752 24.4424 37.2352 23.4024 38.6352 21.8224C39.2752 21.1624 39.4252 20.5224 39.4252 20.0724C39.4252 18.4024 38.2552 18.2424 36.6452 18.2424C34.5552 18.2424 33.2052 18.2724 31.1052 18.3524C29.8652 18.4024 26.5252 19.5224 24.7252 20.2324V18.6424C24.7252 18.4024 24.6952 18.1624 24.6152 17.9524L26.7852 17.1324C27.0452 17.0224 27.2052 16.8724 27.2852 16.5724L28.0552 13.7424C28.1052 13.5824 27.9752 13.3424 27.7652 13.3424C27.6352 13.3424 27.5052 13.4524 27.4752 13.5524L26.7052 16.3624C26.6752 16.4724 26.6252 16.5224 26.4952 16.5724L24.3452 17.3924C24.1352 17.0224 23.8152 16.7024 23.4152 16.4924C23.5752 16.3624 23.6752 16.1724 23.7852 16.0124C24.1252 15.9024 24.3952 15.5324 24.3952 15.0824C24.3952 14.6024 24.1052 14.2324 23.7052 14.1524C23.5152 13.8624 23.2252 13.5924 22.9152 13.4324C22.9952 13.3524 23.0252 13.2424 23.0752 13.1424L23.3352 12.5024C23.5452 11.9724 23.7852 11.4424 23.8652 11.4424C23.9952 11.4424 24.0752 11.3924 24.0752 11.2524V11.1424C24.0752 11.0124 23.9952 10.9524 23.8352 10.9524C23.5752 10.9524 23.3552 11.0824 23.2552 11.2924L22.4852 12.9624C22.4352 13.0724 22.3752 13.1524 22.2952 13.1724C22.0852 13.1224 21.8452 13.0924 21.6052 13.0924C21.3652 13.0924 21.1252 13.1224 20.9152 13.1724C20.8352 13.1424 20.7852 13.0624 20.7252 12.9624L19.9552 11.2924C19.8452 11.0824 19.6352 10.9524 19.3752 10.9524C19.2152 10.9524 19.1352 11.0024 19.1352 11.1424V11.2524C19.1352 11.3824 19.2152 11.4424 19.3452 11.4424C19.4252 11.4424 19.6652 11.9724 19.8752 12.5024L20.1352 13.1424C20.1852 13.2524 20.2152 13.3524 20.2952 13.4324C19.9752 13.5924 19.6852 13.8524 19.5052 14.1524C19.1052 14.2324 18.8152 14.6024 18.8152 15.0824C18.8152 15.5324 19.0752 15.9024 19.4252 16.0124C19.5352 16.1724 19.6352 16.3524 19.7952 16.4924C19.3952 16.7024 19.0752 17.0224 18.8652 17.3924L16.7152 16.5724C16.5852 16.5224 16.5252 16.4624 16.5052 16.3624L15.7352 13.5524C15.7052 13.4424 15.5752 13.3424 15.4452 13.3424C15.2352 13.3424 15.1052 13.5824 15.1552 13.7424L15.9252 16.5724C16.0052 16.8624 16.1652 17.0224 16.4252 17.1324L18.5952 17.9524C18.5152 18.1624 18.4852 18.4024 18.4852 18.6424V20.2324C16.6852 19.5124 13.3452 18.4024 12.1052 18.3524C10.0152 18.2724 8.66516 18.2424 6.56516 18.2424C4.94516 18.2424 3.78516 18.4024 3.78516 20.0724C3.78516 20.5224 3.94516 21.1624 4.57516 21.8224C5.97516 23.4124 7.83516 24.4424 8.65516 24.5724C8.97516 24.6224 10.1352 24.7024 11.3852 24.7024C11.9652 24.7024 12.5752 24.7024 13.1052 24.6724L10.7252 28.0324C10.6752 28.1124 10.5652 28.1924 10.4352 28.1624L8.47516 27.8224C8.26516 27.7924 8.13516 27.9324 8.13516 28.1124C8.13516 28.2424 8.24516 28.3724 8.37516 28.4024L10.4652 28.7724C10.7552 28.8224 10.9952 28.7424 11.1852 28.4824L13.9152 24.5624C14.0252 24.5324 14.1052 24.5324 14.1752 24.5124L14.5452 24.4324C15.4152 24.1424 17.4052 22.7124 18.4352 21.9724L18.8852 21.6524C19.0152 21.8424 19.1752 22.0224 19.3652 22.1824C18.7552 22.6324 18.2552 23.2424 17.8252 23.9324L14.6252 26.5324C14.4152 26.7424 14.2852 26.8724 14.2552 27.1924L13.6752 32.8324C13.6452 32.9424 13.5952 33.0224 13.4652 33.0724L9.62516 34.4524C9.46516 34.5024 9.33516 34.7124 9.38516 34.8724C9.46516 35.0324 9.64516 35.0624 9.86516 35.0024L13.8152 33.6024C14.0752 33.4924 14.2652 33.3424 14.2952 32.9924L14.8752 27.2724C14.9052 27.1624 14.9552 27.0624 15.0352 27.0124L17.2352 25.2424C16.7052 26.5924 16.4652 28.0524 16.4652 29.3524C16.4652 33.8024 18.7152 37.3024 21.6052 37.3024Z" fill="currentColor"></path></svg>