<?xml version="1.0" encoding="UTF-8" standalone="no"?>
<!-- Created with Inkscape (http://www.inkscape.org/) -->

<svg
   width="19"
   height="32"
   viewBox="0 0 19 32"
   version="1.1"
   id="svg1"
   inkscape:version="1.4 (e7c3feb100, 2024-10-09)"
   sodipodi:docname="bus.svg"
   xmlns:inkscape="http://www.inkscape.org/namespaces/inkscape"
   xmlns:sodipodi="http://sodipodi.sourceforge.net/DTD/sodipodi-0.dtd"
   xmlns="http://www.w3.org/2000/svg"
   xmlns:svg="http://www.w3.org/2000/svg">
  <sodipodi:namedview
     id="namedview1"
     pagecolor="#ffffff"
     bordercolor="#000000"
     borderopacity="0.25"
     inkscape:showpageshadow="2"
     inkscape:pageopacity="0.0"
     inkscape:pagecheckerboard="0"
     inkscape:deskcolor="#d1d1d1"
     inkscape:document-units="px"
     inkscape:zoom="12.628485"
     inkscape:cx="13.0657"
     inkscape:cy="19.756922"
     inkscape:window-width="3398"
     inkscape:window-height="1374"
     inkscape:window-x="0"
     inkscape:window-y="0"
     inkscape:window-maximized="1"
     inkscape:current-layer="layer1" />
  <defs
     id="defs1" />
  <g
     inkscape:label="Layer 1"
     inkscape:groupmode="layer"
     id="layer1">
    <g
       id="g5"
       inkscape:label="Bus"
       transform="matrix(1.0255692,0,0,1,-7.3114343,-0.07918606)">
      <path
         style="stroke-linejoin:round;stroke-miterlimit:4.4"
         d="M 8.2363281,0.06445312 A 1.0049054,1.0049054 0 0 0 7.2304687,1.0683594 V 28.664062 a 1.0049054,1.0049054 0 0 0 1.0058594,1.003907 H 24.800781 a 1.0049054,1.0049054 0 0 0 1.003906,-1.003907 V 1.0683594 A 1.0049054,1.0049054 0 0 0 24.800781,0.06445312 Z M 9.2402344,2.0742188 H 23.794922 V 27.658203 H 9.2402344 Z"
         id="rect2" />
      <path
         id="rect3"
         style="stroke-width:3.69012;stroke-linejoin:round;stroke-miterlimit:4.4"
         d="m 7.2230978,28.724411 h 2.2397201 v 3.583552 H 7.2230978 Z" />
      <path
         id="rect3-5"
         style="stroke-width:3.69012;stroke-linejoin:round;stroke-miterlimit:4.4"
         d="m 23.55818,28.687664 h 2.23972 v 3.583552 h -2.23972 z" />
      <path
         id="rect4"
         style="stroke-width:1.77577;stroke-linejoin:round;stroke-miterlimit:4.4"
         d="m 8.4550781,20.044922 v 8.007812 H 24.076172 v -8.007812 z m 3.2753909,3.304687 a 1.3158355,1.3158355 0 0 1 1.316406,1.314453 1.3158355,1.3158355 0 0 1 -1.316406,1.316407 1.3158355,1.3158355 0 0 1 -1.316407,-1.316407 1.3158355,1.3158355 0 0 1 1.316407,-1.314453 z m 9.935547,0.08984 a 1.3158355,1.3158355 0 0 1 1.316406,1.316406 1.3158355,1.3158355 0 0 1 -1.316406,1.316407 1.3158355,1.3158355 0 0 1 -1.314454,-1.316407 1.3158355,1.3158355 0 0 1 1.314454,-1.316406 z" />
      <path
         id="rect5"
         style="stroke-width:2.74423;stroke-linejoin:round;stroke-miterlimit:4.4"
         d="M 8.6229219,5.6552935 H 24.356955 V 13.158355 H 8.6229219 Z" />
    </g>
  </g>
</svg>
